<svg xmlns="http://www.w3.org/2000/svg" width="981" height="827.046" viewBox="0 0 981 827.046">
  <g id="グループ_376" data-name="グループ 376" transform="translate(-337 -635)">
    <g id="グループ_47" data-name="グループ 47" transform="translate(200 -478)">
      <rect id="長方形_24" data-name="長方形 24" width="612.638" height="530.528" rx="10" transform="translate(331.181 1409.518)" fill="#e0d9c1"/>
      <path id="多角形_3" data-name="多角形 3" d="M477.393,2.464a5,5,0,0,1,6.214,0l466.15,369.724a5,5,0,0,1-3.107,8.917H14.35a5,5,0,0,1-3.107-8.917Z" transform="translate(157 1113)" fill="#e0d9c1"/>
    </g>
    <g id="グループ_30" data-name="グループ 30" transform="translate(180 -478)">
      <rect id="長方形_24-2" data-name="長方形 24" width="612.638" height="524.528" rx="10" transform="translate(331.181 1409.518)" fill="#fff"/>
      <path id="多角形_3-2" data-name="多角形 3" d="M477.393,2.464a5,5,0,0,1,6.214,0l466.15,369.724a5,5,0,0,1-3.107,8.917H14.35a5,5,0,0,1-3.107-8.917Z" transform="translate(157 1113)" fill="#fff"/>
    </g>
  </g>
</svg>
