<svg id="tel_icon" xmlns="http://www.w3.org/2000/svg" width="19.235" height="21.214" viewBox="0 0 19.235 21.214">
  <path id="パス_6" data-name="パス 6" d="M42.7,16.587a19.491,19.491,0,0,0-4.024-2.533,1.652,1.652,0,0,0-1.8,1.135c-.291.775-.7.664-.7.664s-1.543-.724-4.206-3.883-3.114-4.8-3.114-4.8-.041-.421.773-.576,1.52-.9,1.422-1.577A19.455,19.455,0,0,0,29.247.618a1.923,1.923,0,0,0-2.307-.4c-.314.188-3.595,1.893-2.977,5.614a19.2,19.2,0,0,0,4.388,9.2,19.2,19.2,0,0,0,8.323,5.884c3.562,1.24,5.8-1.7,6.037-1.982A1.924,1.924,0,0,0,42.7,16.587Z" transform="translate(-23.886 0)" fill="#aa9c69"/>
</svg>
