<svg xmlns="http://www.w3.org/2000/svg" xmlns:xlink="http://www.w3.org/1999/xlink" width="225" height="259" viewBox="0 0 225 259">
  <defs>
    <clipPath id="clip-path">
      <rect id="長方形_3" data-name="長方形 3" width="132.782" height="108.787" fill="#8fc08f"/>
    </clipPath>
  </defs>
  <g id="グループ_375" data-name="グループ 375" transform="translate(-151 -1316)">
    <g id="パス_13" data-name="パス 13" transform="translate(151 1350)" fill="#fff">
      <path d="M 112.5 223.5000152587891 C 104.9678268432617 223.5000152587891 97.4407958984375 222.7412719726562 90.12802886962891 221.2448577880859 C 83.00191497802734 219.7866363525391 75.99240875244141 217.6107788085938 69.29426574707031 214.7776947021484 C 62.71738052368164 211.9959259033203 56.37385177612305 208.5527496337891 50.43988418579102 204.5438385009766 C 44.56194305419922 200.5727691650391 39.03450012207031 196.0122222900391 34.01114654541016 190.9888610839844 C 28.98779487609863 185.9655151367188 24.4272346496582 180.4380645751953 20.4561767578125 174.5601348876953 C 16.447265625 168.6261596679688 13.00408840179443 162.2826232910156 10.22232341766357 155.7057495117188 C 7.389235496520996 149.0075988769531 5.213382244110107 141.9980926513672 3.755146980285645 134.8719787597656 C 2.258735179901123 127.5592193603516 1.5 120.0321884155273 1.5 112.5000152587891 C 1.5 100.8535995483398 3.294941186904907 89.38368988037109 6.834941387176514 78.40889739990234 C 10.26099967956543 67.78742218017578 15.27467632293701 57.75971603393555 21.7367057800293 48.60433578491211 C 28.11829376220703 39.56298065185547 35.79488372802734 31.53527641296387 44.55326461791992 24.74427604675293 C 53.39670562744141 17.88730621337891 63.17820739746094 12.42098236083984 73.62606048583984 8.497159004211426 C 74.64461517333984 8.11460018157959 75.63261413574219 7.928658962249756 76.64649963378906 7.928658962249756 C 80.61267852783203 7.928658962249756 84.43864440917969 10.86065864562988 88.86873626708984 14.25565910339355 C 95.05073547363281 18.99318885803223 102.0575561523438 24.36286544799805 112.3093566894531 24.36286544799805 C 112.3763198852539 24.36286544799805 112.4432678222656 24.36262893676758 112.510498046875 24.36215782165527 L 113.3709411621094 24.35612869262695 L 113.8001174926758 23.61030578613281 C 117.3659973144531 17.4134521484375 121.5529403686523 12.78974723815918 126.2445602416992 9.867688179016113 C 130.2948455810547 7.345070362091064 134.758056640625 6.065982341766357 139.5102386474609 6.065982341766357 C 142.8769683837891 6.065982341766357 146.3793792724609 6.704952716827393 149.9201507568359 7.965129375457764 C 160.5119476318359 11.73460006713867 170.454345703125 17.10895347595215 179.4712066650391 23.93889427185059 C 188.39599609375 30.69912910461426 196.2315368652344 38.74486541748047 202.7601165771484 47.85260009765625 C 209.3730010986328 57.07798385620117 214.5078582763672 67.20554351806641 218.0220336914062 77.95401000976562 C 221.6569366455078 89.07183837890625 223.5 100.6947784423828 223.5 112.5000152587891 C 223.5 120.0321884155273 222.7412719726562 127.5592193603516 221.2448577880859 134.8719787597656 C 219.78662109375 141.9980926513672 217.6107635498047 149.0075988769531 214.7776794433594 155.7057495117188 C 211.9959106445312 162.2826232910156 208.552734375 168.6261596679688 204.5438232421875 174.5601348876953 C 200.5727691650391 180.4380645751953 196.01220703125 185.9655151367188 190.9888458251953 190.9888610839844 C 185.9654998779297 196.0122222900391 180.4380645751953 200.5727691650391 174.5601196289062 204.5438385009766 C 168.6261444091797 208.5527496337891 162.2826232910156 211.9959259033203 155.7057342529297 214.7776947021484 C 149.0075836181641 217.6107788085938 141.9980926513672 219.7866363525391 134.8719635009766 221.2448577880859 C 127.5592041015625 222.7412719726562 120.0321731567383 223.5000152587891 112.5 223.5000152587891 Z" stroke="none"/>
      <path d="M 139.5104370117188 7.56597900390625 C 135.0426025390625 7.566314697265625 130.8460693359375 8.769195556640625 127.0374984741211 11.14118957519531 C 122.5577850341797 13.93119812011719 118.5414962768555 18.37812805175781 115.1002197265625 24.35841369628906 L 114.2417831420898 25.85029602050781 L 112.5205917358398 25.86210632324219 C 112.4499969482422 25.86256408691406 112.3796539306641 25.86282348632812 112.3093414306641 25.86282348632812 C 101.5488739013672 25.86282348632812 94.01219177246094 20.08709716796875 87.95631408691406 15.44622802734375 C 83.74287414550781 12.21725463867188 80.10403442382812 9.428634643554688 76.64649963378906 9.428634643554688 C 75.81590270996094 9.428634643554688 75.00044250488281 9.583251953125 74.15341186523438 9.901382446289062 C 63.84652709960938 13.77226257324219 54.19683837890625 19.16497802734375 45.472412109375 25.92965698242188 C 36.83152770996094 32.62953186035156 29.25802612304688 40.54940795898438 22.96218872070312 49.46928405761719 C 16.58766174316406 58.50070190429688 11.6419677734375 68.39228820800781 8.262527465820312 78.86935424804688 C 4.77056884765625 89.69515991210938 3 101.0101623535156 3 112.5000076293945 C 3 119.9314117431641 3.748504638671875 127.3572616577148 5.224685668945312 134.5712585449219 C 6.663055419921875 141.6003723144531 8.809310913085938 148.5144653320312 11.60380554199219 155.1214141845703 C 14.34786987304688 161.6091003417969 17.74443054199219 167.86669921875 21.6990966796875 173.7204132080078 C 25.61674499511719 179.5192565917969 30.115966796875 184.9723510742188 35.07180786132812 189.9281921386719 C 40.02764892578125 194.884033203125 45.48074340820312 199.3832550048828 51.27958679199219 203.3009185791016 C 57.13331604003906 207.2555694580078 63.39089965820312 210.6521301269531 69.87860107421875 213.3961944580078 C 76.48553466796875 216.1906890869141 83.39962768554688 218.3369445800781 90.42875671386719 219.7753143310547 C 97.64275360107422 221.2515106201172 105.0685958862305 222.0000152587891 112.5 222.0000152587891 C 119.9314041137695 222.0000152587891 127.3572463989258 221.2515106201172 134.5712585449219 219.7753143310547 C 141.6003723144531 218.3369445800781 148.5144653320312 216.1906890869141 155.1213989257812 213.3961944580078 C 161.6091003417969 210.6521301269531 167.8666839599609 207.2555694580078 173.7203979492188 203.3009185791016 C 179.5192565917969 199.3832550048828 184.9723510742188 194.884033203125 189.9281921386719 189.9281921386719 C 194.884033203125 184.9723510742188 199.3832550048828 179.5192565917969 203.3009033203125 173.7204132080078 C 207.2555541992188 167.86669921875 210.6521301269531 161.6091003417969 213.3961944580078 155.1214141845703 C 216.1906890869141 148.5144653320312 218.3369445800781 141.6003723144531 219.7753143310547 134.5712585449219 C 221.2514953613281 127.3572616577148 222 119.9314117431641 222 112.5000076293945 C 222 100.8533554077148 220.1819305419922 89.38722229003906 216.5962829589844 78.42013549804688 C 213.1298065185547 67.81753540039062 208.0644683837891 57.82716369628906 201.5409698486328 48.72650146484375 C 195.1002197265625 39.74128723144531 187.3701477050781 31.80381774902344 178.5654907226562 25.13459777832031 C 169.6711578369141 18.39741516113281 159.8642578125 13.09622192382812 149.4171905517578 9.3782958984375 C 146.0375671386719 8.175445556640625 142.7044677734375 7.565719604492188 139.5104675292969 7.56597900390625 L 139.5104370117188 7.56597900390625 M 139.5102233886719 4.565963745117188 C 143.2821655273438 4.565673828125 146.9722900390625 5.323776245117188 150.423095703125 6.55194091796875 C 193.8036499023438 21.990478515625 225 63.60209655761719 225 112.5000076293945 C 225 174.6320343017578 174.6320343017578 225.0000152587891 112.5 225.0000152587891 C 50.36796569824219 225.0000152587891 0 174.6320343017578 0 112.5000076293945 C 0 64.28553771972656 30.33036804199219 23.15510559082031 73.09866333007812 7.092910766601562 C 85.21498107910156 2.542282104492188 93.11677551269531 22.86285400390625 112.3093490600586 22.86283874511719 C 112.3728103637695 22.86283874511719 112.4362869262695 22.86260986328125 112.5 22.86216735839844 C 120.3560409545898 9.209808349609375 130.1779632568359 4.566680908203125 139.5102233886719 4.565963745117188 Z" stroke="none" fill="#8fc08f"/>
    </g>
    <g id="グループ_48" data-name="グループ 48" transform="translate(200.218 1316)">
      <g id="グループ_1" data-name="グループ 1" clip-path="url(#clip-path)">
        <path id="パス_1" data-name="パス 1" d="M63.991,43.65S69.2,10.254,96.624,6.192s32.5-9.141,35.551-4.062-5.333,39.235-26.283,48.377c-19.9,8.685-34.664.761-39.235,6.856-3.554,4.739.508,51.424.508,51.424H57.006s3.556-44.822.509-46.853-9.651,1.143-28.95-1.9S5.2,31.206,1.14,26.128c-6.095-7.619,13.713-4.19,25.14-2.286,11.023,1.838,25.459,7.915,32.379,25.9,5.713,14.856,5.332-6.095,5.332-6.095" transform="translate(0 0)" fill="#8fc08f"/>
      </g>
    </g>
  </g>
</svg>
