<svg id="グループ_11" data-name="グループ 11" xmlns="http://www.w3.org/2000/svg" xmlns:xlink="http://www.w3.org/1999/xlink" width="30.514" height="25" viewBox="0 0 30.514 25">
  <defs>
    <clipPath id="clip-path">
      <rect id="長方形_3" data-name="長方形 3" width="30.514" height="25" fill="#8fc08f"/>
    </clipPath>
  </defs>
  <g id="グループ_1" data-name="グループ 1" clip-path="url(#clip-path)">
    <path id="パス_1" data-name="パス 1" d="M14.706,10.031s1.2-7.675,7.5-8.608,7.47-2.1,8.17-.933-1.226,9.016-6.04,11.117c-4.574,2-7.966.175-9.016,1.576C14.5,14.271,15.435,25,15.435,25H13.1s.817-10.3.117-10.767S11,14.5,6.565,13.8,1.2,7.171.262,6c-1.4-1.751,3.151-.963,5.777-.525a9.218,9.218,0,0,1,7.441,5.953c1.313,3.414,1.225-1.4,1.225-1.4" transform="translate(0 0)" fill="#8fc08f"/>
  </g>
</svg>
